<?xml version="1.0" encoding="UTF-8"?>
<svg xmlns="http://www.w3.org/2000/svg" xmlns:xlink="http://www.w3.org/1999/xlink" width="20px" height="18px">
  <path fill-rule="evenodd"  fill="rgb(255, 255, 255)" d="M19.837,2.117 C19.108,2.461 18.324,2.693 17.501,2.797 C18.341,2.263 18.986,1.416 19.290,0.407 C18.504,0.902 17.633,1.262 16.706,1.455 C15.964,0.616 14.907,0.091 13.737,0.091 C11.491,0.091 9.669,2.026 9.669,4.412 C9.669,4.750 9.705,5.080 9.775,5.397 C6.394,5.216 3.396,3.496 1.390,0.882 C1.040,1.520 0.839,2.263 0.839,3.054 C0.839,4.553 1.557,5.875 2.649,6.650 C1.982,6.628 1.355,6.434 0.806,6.110 C0.806,6.128 0.806,6.146 0.806,6.165 C0.806,8.258 2.208,10.004 4.069,10.401 C3.728,10.499 3.368,10.552 2.998,10.552 C2.735,10.552 2.480,10.525 2.232,10.475 C2.750,12.191 4.252,13.440 6.032,13.475 C4.640,14.634 2.886,15.324 0.980,15.324 C0.652,15.324 0.328,15.305 0.010,15.264 C1.810,16.490 3.948,17.206 6.245,17.206 C13.728,17.206 17.820,10.622 17.820,4.913 C17.820,4.725 17.815,4.539 17.808,4.354 C18.603,3.745 19.292,2.983 19.837,2.117 Z"/>
</svg>
